<svg width="934" height="316" viewBox="0 0 934 316" fill="none" xmlns="http://www.w3.org/2000/svg">
<rect width="934" height="316" fill="#E5E5E5"/>
<path d="M27.4305 77.3723H1.69855C5.63055 53.215 16.3906 32.5683 34.2199 18.447C78.1545 -16.349 150.849 -0.271638 209.076 52.815C157.421 8.62169 94.7759 -3.93166 56.4079 26.4577C40.8746 38.7603 31.2799 56.5496 27.4305 77.3723" fill="#60BC32"/>
<path d="M0.905225 83.1163V83.123L0.897217 83.1163H0.905225Z" fill="#DEDEDC"/>
<path d="M211.812 97.0483H238.453C238.453 97.0483 195.124 28.8323 118.24 21.115C118.24 21.115 57.4612 11.5003 37.6625 77.3723H43.5279C43.5279 77.3723 61.7132 27.2457 123.885 40.387C125.052 40.6337 126.224 40.8576 127.397 41.075C135.247 42.523 172.741 51.5683 211.812 97.0483" fill="url(#paint0_linear_0:1)"/>
<path d="M208.756 51.5857C208.756 51.5857 228.88 38.8764 247.619 54.3564C247.619 54.3564 229.033 67.1817 208.756 51.5857" fill="#60BC32"/>
<path d="M209.537 53.0189C208.947 52.9163 208.62 52.8896 208.62 52.8896C214.344 74.351 233.917 75.335 233.917 75.335C232.187 67.8056 228.331 62.7883 224.141 59.4483C219.076 58.5043 214.188 56.3523 209.537 53.0189" fill="#60BC32"/>
<path d="M323.653 142.448L341.056 119.846H240.397V142.448H323.653ZM267.411 184.398V172.58H320.795L336.255 152.834H240.397V206.743H324.045L341.315 184.398H267.411" fill="#C0BEBD"/>
<path d="M796.698 142.448L814.103 119.846H713.444V142.448H796.698ZM740.457 184.398V172.579H793.841L809.303 152.834H713.444V206.743H797.09L814.36 184.398H740.457" fill="#C0BEBD"/>
<path d="M438.602 208.17C436.869 208.17 435.161 207.887 433.472 207.326C431.784 206.76 429.9 205.487 427.822 203.494L374.568 155.695V206.742H350.149V134.654C350.149 131.796 350.558 129.328 351.384 127.25C352.205 125.171 353.286 123.483 354.63 122.184C355.972 120.886 357.53 119.934 359.306 119.327C361.08 118.722 362.921 118.418 364.826 118.418C366.47 118.418 368.138 118.699 369.828 119.262C371.516 119.826 373.442 121.103 375.608 123.094L428.861 170.892V119.847H453.411V191.803C453.411 194.662 452.997 197.13 452.176 199.207C451.352 201.286 450.27 202.996 448.929 204.339C447.585 205.682 446.006 206.655 444.188 207.26C442.369 207.864 440.506 208.17 438.602 208.17" fill="#C0BEBD"/>
<path d="M582.126 168.814C582.126 195.051 564.073 208.17 527.964 208.17C517.485 208.17 508.48 207.346 500.947 205.702C493.413 204.058 487.199 201.59 482.308 198.299C477.415 195.008 473.821 190.916 471.526 186.024C469.232 181.134 468.085 175.395 468.085 168.814V119.847H494.842V168.814C494.842 172.019 495.275 174.703 496.141 176.867C497.005 179.032 498.629 180.786 501.012 182.128C503.392 183.47 506.748 184.422 511.078 184.984C515.408 185.55 521.035 185.83 527.964 185.83C533.159 185.83 537.488 185.526 540.953 184.919C544.415 184.315 547.188 183.318 549.265 181.932C551.344 180.548 552.837 178.772 553.747 176.607C554.656 174.443 555.111 171.846 555.111 168.814V119.847H582.126V168.814" fill="#C0BEBD"/>
<path d="M705.259 119.847L687.854 142.447H656.811V206.742H629.924V142.447H589.139L606.544 119.847H705.259Z" fill="#C0BEBD"/>
<path d="M933.209 206.742H892.554L866.317 183.88C861.815 179.984 858.372 176.955 855.992 174.788C853.609 172.626 851.684 170.806 850.212 169.334C850.297 171.326 850.384 173.382 850.471 175.503C850.557 177.626 850.601 179.724 850.601 181.803V206.742H823.584V119.847H850.601V139.979C850.601 142.663 850.557 145.304 850.471 147.902C850.384 150.499 850.255 152.924 850.081 155.176C851.812 153.616 853.915 151.691 856.381 149.396C858.849 147.103 862.075 144.31 866.059 141.018L891.127 119.847H930.092L896.841 144.784C893.984 146.95 891.452 148.856 889.244 150.499C887.034 152.146 885.064 153.575 883.333 154.786C881.6 155.999 880.021 157.082 878.592 158.034C877.164 158.987 875.755 159.896 874.371 160.76C876.881 162.494 879.912 164.658 883.464 167.255C887.013 169.854 891.601 173.447 897.232 178.035L933.209 206.742" fill="#C0BEBD"/>
<path d="M286.227 236.919C286.44 245.079 284.52 253.492 281.293 261.292C281.013 261.986 280.72 262.679 280.427 263.359C280.4 263.412 280.387 263.452 280.36 263.506C280.107 264.106 279.84 264.706 279.547 265.306C278.872 266.824 278.136 268.315 277.339 269.775L276.773 270.812C276.467 271.372 276.16 271.932 275.84 272.492C275.8 272.572 275.747 272.652 275.707 272.732C275.68 272.786 275.64 272.852 275.613 272.906C275.16 273.706 274.693 274.479 274.227 275.266C274.187 275.346 274.147 275.412 274.093 275.479C268.947 283.692 262.467 290.932 254.813 296.986C246.653 303.452 237.493 308.172 227.613 311.212C175.12 327.386 102.413 296.412 51.1332 231.666C12.9332 183.439 -4.29344 127.906 0.906558 83.1324V83.1191H140.893C179.141 83.1191 210.147 114.124 210.147 152.372V155.572C210.147 164.506 208.453 173.386 205.013 181.626C200.16 193.212 190.96 207.879 173.8 217.306L205.573 264.479C205.573 264.479 177.547 271.399 158.16 263.252L109.36 191.066H135.267C153.22 191.066 167.773 176.512 167.773 158.559V149.786C167.773 131.946 153.413 117.452 135.573 117.279L26.5066 116.239C30.4132 149.612 45.6532 186.226 71.6932 219.106C125.307 286.812 204.907 313.639 252.04 280.839C253.293 279.972 254.507 279.066 255.707 278.119C256.52 277.466 257.333 276.812 258.107 276.119L269.728 264.956C271.895 262.874 273.929 260.651 275.727 258.243C275.739 258.228 275.749 258.214 275.76 258.199C280.52 251.959 284.32 244.879 286.227 236.919" fill="url(#paint1_linear_0:1)"/>
<path d="M275.613 272.906C275.16 273.692 274.72 274.492 274.227 275.266C274.693 274.479 275.16 273.706 275.613 272.906Z" fill="url(#paint2_linear_0:1)"/>
<path d="M279.387 265.666C278.653 267.279 277.853 268.839 277.013 270.372C277.84 268.826 278.64 267.252 279.387 265.666Z" fill="url(#paint3_linear_0:1)"/>
<path d="M102.015 240.044C101.897 239.942 101.78 239.847 101.663 239.743C101.663 239.743 101.781 239.848 102.015 240.044Z" fill="#60BC32"/>
<path d="M102.015 240.044C156.001 287.403 205.771 285.892 205.771 285.892C268.664 286.348 267.315 238.339 267.315 238.339L246.612 234.494C243.72 267.663 216.336 274.188 212.548 274.935C212.083 275.026 211.619 275.122 211.156 275.218C158.121 286.191 106.736 244.038 102.015 240.044Z" fill="#60BC32"/>
<path d="M258.106 276.119C257.333 276.812 256.52 277.466 255.706 278.119C254.506 279.066 253.293 279.972 252.04 280.839C254.093 279.319 256.12 277.746 258.106 276.119Z" fill="url(#paint4_linear_0:1)"/>
<defs>
<linearGradient id="paint0_linear_0:1" x1="37.6625" y1="58.8363" x2="238.453" y2="58.8363" gradientUnits="userSpaceOnUse">
<stop stop-color="#6D6F71"/>
<stop offset="1" stop-color="#F9F9FB"/>
</linearGradient>
<linearGradient id="paint1_linear_0:1" x1="143.121" y1="315.443" x2="143.121" y2="83.1191" gradientUnits="userSpaceOnUse">
<stop stop-color="#F9F9FB"/>
<stop offset="1" stop-color="#6D6F71"/>
</linearGradient>
<linearGradient id="paint2_linear_0:1" x1="274.92" y1="275.266" x2="274.92" y2="272.906" gradientUnits="userSpaceOnUse">
<stop stop-color="#F9F9FB"/>
<stop offset="1" stop-color="#6D6F71"/>
</linearGradient>
<linearGradient id="paint3_linear_0:1" x1="278.2" y1="270.372" x2="278.2" y2="265.666" gradientUnits="userSpaceOnUse">
<stop stop-color="#F9F9FB"/>
<stop offset="1" stop-color="#6D6F71"/>
</linearGradient>
<linearGradient id="paint4_linear_0:1" x1="253.144" y1="281.535" x2="257.226" y2="275.069" gradientUnits="userSpaceOnUse">
<stop stop-color="#F9F9FB"/>
<stop offset="1" stop-color="#6D6F71"/>
</linearGradient>
</defs>
</svg>
